<?xml version="1.0" encoding="utf-8"?>
<!-- Generator: Adobe Illustrator 16.0.0, SVG Export Plug-In . SVG Version: 6.00 Build 0)  -->
<!DOCTYPE svg PUBLIC "-//W3C//DTD SVG 1.1//EN" "http://www.w3.org/Graphics/SVG/1.1/DTD/svg11.dtd">
<svg version="1.1" id="Forma_1_1_" xmlns="http://www.w3.org/2000/svg" xmlns:xlink="http://www.w3.org/1999/xlink" x="0px" y="0px"
	 width="487.5px" height="162.667px" viewBox="0 0 487.5 162.667" enable-background="new 0 0 487.5 162.667" xml:space="preserve">
<polygon display="none" points="481.833,-34.325 112.383,-34.325 -13.306,-34.325 -13.306,193.112 481.833,193.112 "/>
<g id="Forma_1">
	<g>
		<path fill="#FFFFFF" d="M116.311,16.767L69.472,40.186L22.634,16.767v11.695l46.837,12.494l46.839-12.495L116.311,16.767
			L116.311,16.767z M7.021,126.056l58.547,15.611V47.993L7.021,32.38V126.056z M73.375,47.993v93.674l58.548-15.611V32.38
			L73.375,47.993z"/>
	</g>
</g>
<text transform="matrix(1 0 0 1 145.104 81.6362)" fill="#FFFFFF" font-family="'AdobeKaitiStd-Regular-GBpc-EUC-H'" font-size="65.2931">TRUYEN</text>
<text transform="matrix(1 0 0 1 153.9907 116.1616)" fill="#FFFFFF" font-family="'Tahoma'" font-size="19.5879">Một không gian - Triệu thế giới</text>
<text transform="matrix(1 0 0 1 411 81.3921)" fill="#FFFFFF" font-family="'AdobeKaitiStd-Regular-GBpc-EUC-H'" font-size="39.1759">A-Z</text>
</svg>
